<?xml version="1.0" encoding="utf-8"?>
<!-- Generator: Adobe Illustrator 20.0.0, SVG Export Plug-In . SVG Version: 6.00 Build 0)  -->
<svg version="1.1" id="Layer_1" xmlns:sketch="http://www.bohemiancoding.com/sketch/ns"
	 xmlns="http://www.w3.org/2000/svg" xmlns:xlink="http://www.w3.org/1999/xlink" x="0px" y="0px" viewBox="0 0 47.4 47.6"
	 style="enable-background:new 0 0 22.4 22.6;" xml:space="preserve">
<title></title>
<desc></desc>
<g id="Page-1">
	<g id="icon-111-search">
		<path id="search" class="svg-search-icon" d="M13.9,16c-1.4,1-3.1,1.6-4.9,1.6c-4.7,0-8.5-3.8-8.5-8.5S4.3,0.6,9,0.6s8.5,3.8,8.5,8.5
			c0,1.8-0.6,3.5-1.6,4.9l5.6,5.6c0.6,0.6,0.5,1.4,0,2l0,0c-0.5,0.5-1.4,0.5-2,0L13.9,16L13.9,16z M9,15.6c3.6,0,6.5-2.9,6.5-6.5
			S12.6,2.6,9,2.6S2.5,5.5,2.5,9.1S5.4,15.6,9,15.6L9,15.6z"/>
	</g>
</g>
</svg>
